<?xml version="1.0" standalone="no"?><!DOCTYPE svg PUBLIC "-//W3C//DTD SVG 1.1//EN" "http://www.w3.org/Graphics/SVG/1.1/DTD/svg11.dtd"><svg xmlns:xlink="http://www.w3.org/1999/xlink" version="1.1" style="font-family:'lucida grande', 'lucida sans unicode', arial, helvetica, sans-serif;font-size:12px;" xmlns="http://www.w3.org/2000/svg" width="600" height="600"><desc>Created with Highcharts 4.0.3</desc><defs><clipPath id="highcharts-15"><rect x="0" y="0" width="398" height="490"></rect></clipPath></defs><rect x="0" y="0" width="600" height="600" strokeWidth="0" fill="#FFFFFF" class=" highcharts-background"></rect><path fill="none" d="M 72 550.5 L 470 550.5" stroke="#808080" stroke-width="1"></path><g class="highcharts-grid" ></g><g class="highcharts-grid" ><path fill="none" d="M 72 60.5 L 470 60.5" stroke="#C0C0C0" stroke-width="1"  opacity="1"></path><path fill="none" d="M 72 109.5 L 470 109.5" stroke="#C0C0C0" stroke-width="1"  opacity="1"></path><path fill="none" d="M 72 158.5 L 470 158.5" stroke="#C0C0C0" stroke-width="1"  opacity="1"></path><path fill="none" d="M 72 207.5 L 470 207.5" stroke="#C0C0C0" stroke-width="1"  opacity="1"></path><path fill="none" d="M 72 256.5 L 470 256.5" stroke="#C0C0C0" stroke-width="1"  opacity="1"></path><path fill="none" d="M 72 305.5 L 470 305.5" stroke="#C0C0C0" stroke-width="1"  opacity="1"></path><path fill="none" d="M 72 354.5 L 470 354.5" stroke="#C0C0C0" stroke-width="1"  opacity="1"></path><path fill="none" d="M 72 403.5 L 470 403.5" stroke="#C0C0C0" stroke-width="1"  opacity="1"></path><path fill="none" d="M 72 452.5 L 470 452.5" stroke="#C0C0C0" stroke-width="1"  opacity="1"></path><path fill="none" d="M 72 501.5 L 470 501.5" stroke="#C0C0C0" stroke-width="1"  opacity="1"></path><path fill="none" d="M 72 550.5 L 470 550.5" stroke="#C0C0C0" stroke-width="1"  opacity="1"></path></g><g class="highcharts-axis" ><path fill="none" d="M 96.5 550 L 96.5 560" stroke="#C0D0E0" stroke-width="1" opacity="1"></path><path fill="none" d="M 108.5 550 L 108.5 560" stroke="#C0D0E0" stroke-width="1" opacity="1"></path><path fill="none" d="M 121.5 550 L 121.5 560" stroke="#C0D0E0" stroke-width="1" opacity="1"></path><path fill="none" d="M 133.5 550 L 133.5 560" stroke="#C0D0E0" stroke-width="1" opacity="1"></path><path fill="none" d="M 146.5 550 L 146.5 560" stroke="#C0D0E0" stroke-width="1" opacity="1"></path><path fill="none" d="M 158.5 550 L 158.5 560" stroke="#C0D0E0" stroke-width="1" opacity="1"></path><path fill="none" d="M 171.5 550 L 171.5 560" stroke="#C0D0E0" stroke-width="1" opacity="1"></path><path fill="none" d="M 183.5 550 L 183.5 560" stroke="#C0D0E0" stroke-width="1" opacity="1"></path><path fill="none" d="M 195.5 550 L 195.5 560" stroke="#C0D0E0" stroke-width="1" opacity="1"></path><path fill="none" d="M 208.5 550 L 208.5 560" stroke="#C0D0E0" stroke-width="1" opacity="1"></path><path fill="none" d="M 220.5 550 L 220.5 560" stroke="#C0D0E0" stroke-width="1" opacity="1"></path><path fill="none" d="M 233.5 550 L 233.5 560" stroke="#C0D0E0" stroke-width="1" opacity="1"></path><path fill="none" d="M 245.5 550 L 245.5 560" stroke="#C0D0E0" stroke-width="1" opacity="1"></path><path fill="none" d="M 258.5 550 L 258.5 560" stroke="#C0D0E0" stroke-width="1" opacity="1"></path><path fill="none" d="M 270.5 550 L 270.5 560" stroke="#C0D0E0" stroke-width="1" opacity="1"></path><path fill="none" d="M 282.5 550 L 282.5 560" stroke="#C0D0E0" stroke-width="1" opacity="1"></path><path fill="none" d="M 295.5 550 L 295.5 560" stroke="#C0D0E0" stroke-width="1" opacity="1"></path><path fill="none" d="M 307.5 550 L 307.5 560" stroke="#C0D0E0" stroke-width="1" opacity="1"></path><path fill="none" d="M 320.5 550 L 320.5 560" stroke="#C0D0E0" stroke-width="1" opacity="1"></path><path fill="none" d="M 332.5 550 L 332.5 560" stroke="#C0D0E0" stroke-width="1" opacity="1"></path><path fill="none" d="M 345.5 550 L 345.5 560" stroke="#C0D0E0" stroke-width="1" opacity="1"></path><path fill="none" d="M 357.5 550 L 357.5 560" stroke="#C0D0E0" stroke-width="1" opacity="1"></path><path fill="none" d="M 370.5 550 L 370.5 560" stroke="#C0D0E0" stroke-width="1" opacity="1"></path><path fill="none" d="M 382.5 550 L 382.5 560" stroke="#C0D0E0" stroke-width="1" opacity="1"></path><path fill="none" d="M 394.5 550 L 394.5 560" stroke="#C0D0E0" stroke-width="1" opacity="1"></path><path fill="none" d="M 407.5 550 L 407.5 560" stroke="#C0D0E0" stroke-width="1" opacity="1"></path><path fill="none" d="M 419.5 550 L 419.5 560" stroke="#C0D0E0" stroke-width="1" opacity="1"></path><path fill="none" d="M 432.5 550 L 432.5 560" stroke="#C0D0E0" stroke-width="1" opacity="1"></path><path fill="none" d="M 444.5 550 L 444.5 560" stroke="#C0D0E0" stroke-width="1" opacity="1"></path><path fill="none" d="M 457.5 550 L 457.5 560" stroke="#C0D0E0" stroke-width="1" opacity="1"></path><path fill="none" d="M 470.5 550 L 470.5 560" stroke="#C0D0E0" stroke-width="1" opacity="1"></path><path fill="none" d="M 83.5 550 L 83.5 560" stroke="#C0D0E0" stroke-width="1" opacity="1"></path><path fill="none" d="M 71.5 550 L 71.5 560" stroke="#C0D0E0" stroke-width="1" opacity="1"></path><text x="271"  text-anchor="middle" transform="translate(0,0)" class=" highcharts-xaxis-title" style="color:#707070;fill:#707070;" visibility="visible" y="601">Threads</text><path fill="none" d="M 72 550.5 L 470 550.5" stroke="#C0D0E0" stroke-width="1"  visibility="visible"></path></g><g class="highcharts-axis" ><text x="24"  text-anchor="middle" transform="translate(0,0) rotate(270 24 305)" class=" highcharts-yaxis-title" style="color:#707070;fill:#707070;" visibility="visible" y="305">Througput</text></g><g class="highcharts-series-group" ><g class="highcharts-series" visibility="visible"  transform="translate(72,60) scale(1 1)" clip-path="url(#highcharts-15)"><path fill="none" d="M 6.21875 138.20600920000004 L 18.65625 400.3167798 L 31.09375 448.195356 L 43.53125 463.5115996 L 55.96875 460.4348504 L 68.40625 456.49554439999997 L 80.84375 453.516658 L 93.28125 452.0673262 L 105.71875 451.3759656 L 118.15625 450.436224 L 130.59375 450.3031302 L 143.03125 449.6881018 L 155.46875 449.7390226 L 167.90625 449.1919376 L 180.34375 448.860335 L 192.78125 449.3819008 L 205.21875 448.8845508 L 217.65625 449.2132722 L 230.09375 448.6612088 L 242.53125 448.7430094 L 254.96875 449.1010622 L 267.40625 449.0761702 L 279.84375 448.8202824 L 292.28125 449.0591672 L 304.71875 448.955983 L 317.15625 449.22704120000003 L 329.59375 448.97912080000003 L 342.03125 449.1614694 L 354.46875 448.9900086 L 366.90625 449.0008572 L 379.34375 449.083236 L 391.78125 448.966175" stroke="#7cb5ec" stroke-width="2"  stroke-linejoin="round" stroke-linecap="round"></path></g><g class="highcharts-markers" visibility="visible"  transform="translate(72,60) scale(1 1)" clip-path="none"><path fill="#7cb5ec" d="M 391 444.966175 C 396.328 444.966175 396.328 452.966175 391 452.966175 C 385.672 452.966175 385.672 444.966175 391 444.966175 Z"></path><path fill="#7cb5ec" d="M 379 445.083236 C 384.328 445.083236 384.328 453.083236 379 453.083236 C 373.672 453.083236 373.672 445.083236 379 445.083236 Z"></path><path fill="#7cb5ec" d="M 366 445.0008572 C 371.328 445.0008572 371.328 453.0008572 366 453.0008572 C 360.672 453.0008572 360.672 445.0008572 366 445.0008572 Z"></path><path fill="#7cb5ec" d="M 354 444.9900086 C 359.328 444.9900086 359.328 452.9900086 354 452.9900086 C 348.672 452.9900086 348.672 444.9900086 354 444.9900086 Z"></path><path fill="#7cb5ec" d="M 342 445.1614694 C 347.328 445.1614694 347.328 453.1614694 342 453.1614694 C 336.672 453.1614694 336.672 445.1614694 342 445.1614694 Z"></path><path fill="#7cb5ec" d="M 329 444.97912080000003 C 334.328 444.97912080000003 334.328 452.97912080000003 329 452.97912080000003 C 323.672 452.97912080000003 323.672 444.97912080000003 329 444.97912080000003 Z"></path><path fill="#7cb5ec" d="M 317 445.22704120000003 C 322.328 445.22704120000003 322.328 453.22704120000003 317 453.22704120000003 C 311.672 453.22704120000003 311.672 445.22704120000003 317 445.22704120000003 Z"></path><path fill="#7cb5ec" d="M 304 444.955983 C 309.328 444.955983 309.328 452.955983 304 452.955983 C 298.672 452.955983 298.672 444.955983 304 444.955983 Z"></path><path fill="#7cb5ec" d="M 292 445.0591672 C 297.328 445.0591672 297.328 453.0591672 292 453.0591672 C 286.672 453.0591672 286.672 445.0591672 292 445.0591672 Z"></path><path fill="#7cb5ec" d="M 279 444.8202824 C 284.328 444.8202824 284.328 452.8202824 279 452.8202824 C 273.672 452.8202824 273.672 444.8202824 279 444.8202824 Z"></path><path fill="#7cb5ec" d="M 267 445.0761702 C 272.328 445.0761702 272.328 453.0761702 267 453.0761702 C 261.672 453.0761702 261.672 445.0761702 267 445.0761702 Z"></path><path fill="#7cb5ec" d="M 254 445.1010622 C 259.328 445.1010622 259.328 453.1010622 254 453.1010622 C 248.672 453.1010622 248.672 445.1010622 254 445.1010622 Z"></path><path fill="#7cb5ec" d="M 242 444.7430094 C 247.328 444.7430094 247.328 452.7430094 242 452.7430094 C 236.672 452.7430094 236.672 444.7430094 242 444.7430094 Z"></path><path fill="#7cb5ec" d="M 230 444.6612088 C 235.328 444.6612088 235.328 452.6612088 230 452.6612088 C 224.672 452.6612088 224.672 444.6612088 230 444.6612088 Z"></path><path fill="#7cb5ec" d="M 217 445.2132722 C 222.328 445.2132722 222.328 453.2132722 217 453.2132722 C 211.672 453.2132722 211.672 445.2132722 217 445.2132722 Z"></path><path fill="#7cb5ec" d="M 205 444.8845508 C 210.328 444.8845508 210.328 452.8845508 205 452.8845508 C 199.672 452.8845508 199.672 444.8845508 205 444.8845508 Z"></path><path fill="#7cb5ec" d="M 192 445.3819008 C 197.328 445.3819008 197.328 453.3819008 192 453.3819008 C 186.672 453.3819008 186.672 445.3819008 192 445.3819008 Z"></path><path fill="#7cb5ec" d="M 180 444.860335 C 185.328 444.860335 185.328 452.860335 180 452.860335 C 174.672 452.860335 174.672 444.860335 180 444.860335 Z"></path><path fill="#7cb5ec" d="M 167 445.1919376 C 172.328 445.1919376 172.328 453.1919376 167 453.1919376 C 161.672 453.1919376 161.672 445.1919376 167 445.1919376 Z"></path><path fill="#7cb5ec" d="M 155 445.7390226 C 160.328 445.7390226 160.328 453.7390226 155 453.7390226 C 149.672 453.7390226 149.672 445.7390226 155 445.7390226 Z"></path><path fill="#7cb5ec" d="M 143 445.6881018 C 148.328 445.6881018 148.328 453.6881018 143 453.6881018 C 137.672 453.6881018 137.672 445.6881018 143 445.6881018 Z"></path><path fill="#7cb5ec" d="M 130 446.3031302 C 135.328 446.3031302 135.328 454.3031302 130 454.3031302 C 124.672 454.3031302 124.672 446.3031302 130 446.3031302 Z"></path><path fill="#7cb5ec" d="M 118 446.436224 C 123.328 446.436224 123.328 454.436224 118 454.436224 C 112.672 454.436224 112.672 446.436224 118 446.436224 Z"></path><path fill="#7cb5ec" d="M 105 447.3759656 C 110.328 447.3759656 110.328 455.3759656 105 455.3759656 C 99.672 455.3759656 99.672 447.3759656 105 447.3759656 Z"></path><path fill="#7cb5ec" d="M 93 448.0673262 C 98.328 448.0673262 98.328 456.0673262 93 456.0673262 C 87.672 456.0673262 87.672 448.0673262 93 448.0673262 Z"></path><path fill="#7cb5ec" d="M 80 449.516658 C 85.328 449.516658 85.328 457.516658 80 457.516658 C 74.672 457.516658 74.672 449.516658 80 449.516658 Z"></path><path fill="#7cb5ec" d="M 68 452.49554439999997 C 73.328 452.49554439999997 73.328 460.49554439999997 68 460.49554439999997 C 62.672 460.49554439999997 62.672 452.49554439999997 68 452.49554439999997 Z"></path><path fill="#7cb5ec" d="M 55 456.4348504 C 60.328 456.4348504 60.328 464.4348504 55 464.4348504 C 49.672 464.4348504 49.672 456.4348504 55 456.4348504 Z"></path><path fill="#7cb5ec" d="M 43 459.5115996 C 48.328 459.5115996 48.328 467.5115996 43 467.5115996 C 37.672 467.5115996 37.672 459.5115996 43 459.5115996 Z"></path><path fill="#7cb5ec" d="M 31 444.195356 C 36.328 444.195356 36.328 452.195356 31 452.195356 C 25.672 452.195356 25.672 444.195356 31 444.195356 Z"></path><path fill="#7cb5ec" d="M 18 396.3167798 C 23.328 396.3167798 23.328 404.3167798 18 404.3167798 C 12.672 404.3167798 12.672 396.3167798 18 396.3167798 Z"></path><path fill="#7cb5ec" d="M 6 134.20600920000004 C 11.328 134.20600920000004 11.328 142.20600920000004 6 142.20600920000004 C 0.6719999999999999 142.20600920000004 0.6719999999999999 134.20600920000004 6 134.20600920000004 Z"></path></g><g class="highcharts-series" visibility="visible"  transform="translate(72,60) scale(1 1)" clip-path="url(#highcharts-15)"><path fill="none" d="M 6.21875 65.50741400000004 L 18.65625 425.4101012 L 31.09375 442.9431538 L 43.53125 447.9115676 L 55.96875 448.069622 L 68.40625 452.926208 L 80.84375 452.4836596 L 93.28125 455.3170846 L 105.71875 453.1413376 L 118.15625 450.4722978 L 130.59375 449.5170036 L 143.03125 449.389535 L 155.46875 448.0306964 L 167.90625 448.3447962 L 180.34375 447.8313056 L 192.78125 448.5140128 L 205.21875 448.1594586 L 217.65625 448.477106 L 230.09375 447.7622842 L 242.53125 448.3283322 L 254.96875 448.1014034 L 267.40625 447.7648812 L 279.84375 448.1286866 L 292.28125 447.9182316 L 304.71875 447.9899088 L 317.15625 447.8146652 L 329.59375 447.566245 L 342.03125 447.53584539999997 L 354.46875 447.79234080000003 L 366.90625 447.7517884 L 379.34375 447.6056018 L 391.78125 447.4950382" stroke="#434348" stroke-width="2"  stroke-linejoin="round" stroke-linecap="round"></path></g><g class="highcharts-markers" visibility="visible"  transform="translate(72,60) scale(1 1)" clip-path="none"><path fill="#434348" d="M 391 443.4950382 L 395 447.4950382 391 451.4950382 387 447.4950382 Z"></path><path fill="#434348" d="M 379 443.6056018 L 383 447.6056018 379 451.6056018 375 447.6056018 Z"></path><path fill="#434348" d="M 366 443.7517884 L 370 447.7517884 366 451.7517884 362 447.7517884 Z"></path><path fill="#434348" d="M 354 443.79234080000003 L 358 447.79234080000003 354 451.79234080000003 350 447.79234080000003 Z"></path><path fill="#434348" d="M 342 443.53584539999997 L 346 447.53584539999997 342 451.53584539999997 338 447.53584539999997 Z"></path><path fill="#434348" d="M 329 443.566245 L 333 447.566245 329 451.566245 325 447.566245 Z"></path><path fill="#434348" d="M 317 443.8146652 L 321 447.8146652 317 451.8146652 313 447.8146652 Z"></path><path fill="#434348" d="M 304 443.9899088 L 308 447.9899088 304 451.9899088 300 447.9899088 Z"></path><path fill="#434348" d="M 292 443.9182316 L 296 447.9182316 292 451.9182316 288 447.9182316 Z"></path><path fill="#434348" d="M 279 444.1286866 L 283 448.1286866 279 452.1286866 275 448.1286866 Z"></path><path fill="#434348" d="M 267 443.7648812 L 271 447.7648812 267 451.7648812 263 447.7648812 Z"></path><path fill="#434348" d="M 254 444.1014034 L 258 448.1014034 254 452.1014034 250 448.1014034 Z"></path><path fill="#434348" d="M 242 444.3283322 L 246 448.3283322 242 452.3283322 238 448.3283322 Z"></path><path fill="#434348" d="M 230 443.7622842 L 234 447.7622842 230 451.7622842 226 447.7622842 Z"></path><path fill="#434348" d="M 217 444.477106 L 221 448.477106 217 452.477106 213 448.477106 Z"></path><path fill="#434348" d="M 205 444.1594586 L 209 448.1594586 205 452.1594586 201 448.1594586 Z"></path><path fill="#434348" d="M 192 444.5140128 L 196 448.5140128 192 452.5140128 188 448.5140128 Z"></path><path fill="#434348" d="M 180 443.8313056 L 184 447.8313056 180 451.8313056 176 447.8313056 Z"></path><path fill="#434348" d="M 167 444.3447962 L 171 448.3447962 167 452.3447962 163 448.3447962 Z"></path><path fill="#434348" d="M 155 444.0306964 L 159 448.0306964 155 452.0306964 151 448.0306964 Z"></path><path fill="#434348" d="M 143 445.389535 L 147 449.389535 143 453.389535 139 449.389535 Z"></path><path fill="#434348" d="M 130 445.5170036 L 134 449.5170036 130 453.5170036 126 449.5170036 Z"></path><path fill="#434348" d="M 118 446.4722978 L 122 450.4722978 118 454.4722978 114 450.4722978 Z"></path><path fill="#434348" d="M 105 449.1413376 L 109 453.1413376 105 457.1413376 101 453.1413376 Z"></path><path fill="#434348" d="M 93 451.3170846 L 97 455.3170846 93 459.3170846 89 455.3170846 Z"></path><path fill="#434348" d="M 80 448.4836596 L 84 452.4836596 80 456.4836596 76 452.4836596 Z"></path><path fill="#434348" d="M 68 448.926208 L 72 452.926208 68 456.926208 64 452.926208 Z"></path><path fill="#434348" d="M 55 444.069622 L 59 448.069622 55 452.069622 51 448.069622 Z"></path><path fill="#434348" d="M 43 443.9115676 L 47 447.9115676 43 451.9115676 39 447.9115676 Z"></path><path fill="#434348" d="M 31 438.9431538 L 35 442.9431538 31 446.9431538 27 442.9431538 Z"></path><path fill="#434348" d="M 18 421.4101012 L 22 425.4101012 18 429.4101012 14 425.4101012 Z"></path><path fill="#434348" d="M 6 61.50741400000004 L 10 65.50741400000004 6 69.50741400000004 2 65.50741400000004 Z"></path></g></g><text x="280" text-anchor="middle" class="highcharts-title"  style="color:#333333;font-size:18px;fill:#333333;width:536px;" y="25"><tspan>Stack Throughput</tspan></text><text x="280" text-anchor="middle" class="highcharts-subtitle"  style="color:#555555;fill:#555555;width:536px;" y="46"><tspan>Intel(R) Xeon(R) CPU E5620 @ 2.40GHz</tspan></text><g class="highcharts-legend"  transform="translate(336,110)"><g ><g><g class="highcharts-legend-item"  transform="translate(8,3)"><path fill="none" d="M 0 11 L 16 11" stroke="#7cb5ec" stroke-width="2"></path><path fill="#7cb5ec" d="M 8 7 C 13.328 7 13.328 15 8 15 C 2.6719999999999997 15 2.6719999999999997 7 8 7 Z"></path><text x="21" style="color:#333333;font-size:12px;font-weight:bold;cursor:pointer;fill:#333333;" text-anchor="start"  y="15"><tspan>std::mutex implemetation</tspan></text></g><g class="highcharts-legend-item"  transform="translate(8,17)"><path fill="none" d="M 0 11 L 16 11" stroke="#434348" stroke-width="2"></path><path fill="#434348" d="M 8 7 L 12 11 8 15 4 11 Z"></path><text x="21" y="15" style="color:#333333;font-size:12px;font-weight:bold;cursor:pointer;fill:#333333;" text-anchor="start" ><tspan>Naive lockfree implementation</tspan></text></g></g></g></g><g class="highcharts-axis-labels highcharts-xaxis-labels" ><text x="78.21875" text-anchor="middle" style="width:1px;color:#606060;cursor:default;font-size:11px;fill:#606060;" y="570" opacity="1">1</text><text x="90.65625" text-anchor="middle" style="width:1px;color:#606060;cursor:default;font-size:11px;fill:#606060;" y="583" opacity="1">2</text><text x="103.09375" text-anchor="middle" style="width:1px;color:#606060;cursor:default;font-size:11px;fill:#606060;" y="570" opacity="1">3</text><text x="115.53125" text-anchor="middle" style="width:1px;color:#606060;cursor:default;font-size:11px;fill:#606060;" y="583" opacity="1">4</text><text x="127.96875" text-anchor="middle" style="width:1px;color:#606060;cursor:default;font-size:11px;fill:#606060;" y="570" opacity="1">5</text><text x="140.40625" text-anchor="middle" style="width:1px;color:#606060;cursor:default;font-size:11px;fill:#606060;" y="583" opacity="1">6</text><text x="152.84375" text-anchor="middle" style="width:1px;color:#606060;cursor:default;font-size:11px;fill:#606060;" y="570" opacity="1">7</text><text x="165.28125" text-anchor="middle" style="width:1px;color:#606060;cursor:default;font-size:11px;fill:#606060;" y="583" opacity="1">8</text><text x="177.71875" text-anchor="middle" style="width:1px;color:#606060;cursor:default;font-size:11px;fill:#606060;" y="570" opacity="1">9</text><text x="190.15625" text-anchor="middle" style="width:1px;color:#606060;cursor:default;font-size:11px;fill:#606060;" y="583" opacity="1">10</text><text x="202.59375" text-anchor="middle" style="width:1px;color:#606060;cursor:default;font-size:11px;fill:#606060;" y="570" opacity="1">11</text><text x="215.03125" text-anchor="middle" style="width:1px;color:#606060;cursor:default;font-size:11px;fill:#606060;" y="583" opacity="1">12</text><text x="227.46875" text-anchor="middle" style="width:1px;color:#606060;cursor:default;font-size:11px;fill:#606060;" y="570" opacity="1">13</text><text x="239.90625" text-anchor="middle" style="width:1px;color:#606060;cursor:default;font-size:11px;fill:#606060;" y="583" opacity="1">14</text><text x="252.34375" text-anchor="middle" style="width:1px;color:#606060;cursor:default;font-size:11px;fill:#606060;" y="570" opacity="1">15</text><text x="264.78125" text-anchor="middle" style="width:1px;color:#606060;cursor:default;font-size:11px;fill:#606060;" y="583" opacity="1">16</text><text x="277.21875" text-anchor="middle" style="width:1px;color:#606060;cursor:default;font-size:11px;fill:#606060;" y="570" opacity="1">17</text><text x="289.65625" text-anchor="middle" style="width:1px;color:#606060;cursor:default;font-size:11px;fill:#606060;" y="583" opacity="1">18</text><text x="302.09375" text-anchor="middle" style="width:1px;color:#606060;cursor:default;font-size:11px;fill:#606060;" y="570" opacity="1">19</text><text x="314.53125" text-anchor="middle" style="width:1px;color:#606060;cursor:default;font-size:11px;fill:#606060;" y="583" opacity="1">20</text><text x="326.96875" text-anchor="middle" style="width:1px;color:#606060;cursor:default;font-size:11px;fill:#606060;" y="570" opacity="1">21</text><text x="339.40625" text-anchor="middle" style="width:1px;color:#606060;cursor:default;font-size:11px;fill:#606060;" y="583" opacity="1">22</text><text x="351.84375" text-anchor="middle" style="width:1px;color:#606060;cursor:default;font-size:11px;fill:#606060;" y="570" opacity="1">23</text><text x="364.28125" text-anchor="middle" style="width:1px;color:#606060;cursor:default;font-size:11px;fill:#606060;" y="583" opacity="1">24</text><text x="376.71875" text-anchor="middle" style="width:1px;color:#606060;cursor:default;font-size:11px;fill:#606060;" y="570" opacity="1">25</text><text x="389.15625" text-anchor="middle" style="width:1px;color:#606060;cursor:default;font-size:11px;fill:#606060;" y="583" opacity="1">26</text><text x="401.59375" text-anchor="middle" style="width:1px;color:#606060;cursor:default;font-size:11px;fill:#606060;" y="570" opacity="1">27</text><text x="414.03125" text-anchor="middle" style="width:1px;color:#606060;cursor:default;font-size:11px;fill:#606060;" y="583" opacity="1">28</text><text x="426.46875" text-anchor="middle" style="width:1px;color:#606060;cursor:default;font-size:11px;fill:#606060;" y="570" opacity="1">29</text><text x="438.90625" text-anchor="middle" style="width:1px;color:#606060;cursor:default;font-size:11px;fill:#606060;" y="583" opacity="1">30</text><text x="451.34375" text-anchor="middle" style="width:1px;color:#606060;cursor:default;font-size:11px;fill:#606060;" y="570" opacity="1">31</text><text x="463.78125" text-anchor="middle" style="width:1px;color:#606060;cursor:default;font-size:11px;fill:#606060;" y="583" opacity="1">32</text></g><g class="highcharts-axis-labels highcharts-yaxis-labels" ><text x="57" text-anchor="end" style="width:178px;color:#606060;cursor:default;font-size:11px;fill:#606060;" y="555.5" opacity="1">0M</text><text x="57" text-anchor="end" style="width:178px;color:#606060;cursor:default;font-size:11px;fill:#606060;" y="506.5" opacity="1">5M</text><text x="57" text-anchor="end" style="width:178px;color:#606060;cursor:default;font-size:11px;fill:#606060;" y="457.5" opacity="1">10M</text><text x="57" text-anchor="end" style="width:178px;color:#606060;cursor:default;font-size:11px;fill:#606060;" y="408.5" opacity="1">15M</text><text x="57" text-anchor="end" style="width:178px;color:#606060;cursor:default;font-size:11px;fill:#606060;" y="359.5" opacity="1">20M</text><text x="57" text-anchor="end" style="width:178px;color:#606060;cursor:default;font-size:11px;fill:#606060;" y="310.5" opacity="1">25M</text><text x="57" text-anchor="end" style="width:178px;color:#606060;cursor:default;font-size:11px;fill:#606060;" y="261.5" opacity="1">30M</text><text x="57" text-anchor="end" style="width:178px;color:#606060;cursor:default;font-size:11px;fill:#606060;" y="212.5" opacity="1">35M</text><text x="57" text-anchor="end" style="width:178px;color:#606060;cursor:default;font-size:11px;fill:#606060;" y="163.5" opacity="1">40M</text><text x="57" text-anchor="end" style="width:178px;color:#606060;cursor:default;font-size:11px;fill:#606060;" y="114.50000000000006" opacity="1">45M</text><text x="57" text-anchor="end" style="width:178px;color:#606060;cursor:default;font-size:11px;fill:#606060;" y="65.50000000000006" opacity="1">50M</text></g><g class="highcharts-tooltip"  style="cursor:default;padding:0;white-space:nowrap;" transform="translate(0,-9999)"><path fill="none" d="M 3 0 L 13 0 C 16 0 16 0 16 3 L 16 13 C 16 16 16 16 13 16 L 3 16 C 0 16 0 16 0 13 L 0 3 C 0 0 0 0 3 0"  stroke="black" stroke-opacity="0.049999999999999996" stroke-width="5" transform="translate(1, 1)"></path><path fill="none" d="M 3 0 L 13 0 C 16 0 16 0 16 3 L 16 13 C 16 16 16 16 13 16 L 3 16 C 0 16 0 16 0 13 L 0 3 C 0 0 0 0 3 0"  stroke="black" stroke-opacity="0.09999999999999999" stroke-width="3" transform="translate(1, 1)"></path><path fill="none" d="M 3 0 L 13 0 C 16 0 16 0 16 3 L 16 13 C 16 16 16 16 13 16 L 3 16 C 0 16 0 16 0 13 L 0 3 C 0 0 0 0 3 0"  stroke="black" stroke-opacity="0.15" stroke-width="1" transform="translate(1, 1)"></path><path fill="rgb(249, 249, 249)" fill-opacity=" .85" d="M 3 0 L 13 0 C 16 0 16 0 16 3 L 16 13 C 16 16 16 16 13 16 L 3 16 C 0 16 0 16 0 13 L 0 3 C 0 0 0 0 3 0"></path><text x="8"  style="font-size:12px;color:#333333;fill:#333333;" y="21"></text></g><text x="590" text-anchor="end"  style="cursor:pointer;color:#909090;font-size:9px;fill:#909090;" y="595">Highcharts.com</text></svg>