<?xml version="1.0" standalone="no"?><!DOCTYPE svg PUBLIC "-//W3C//DTD SVG 1.1//EN" "http://www.w3.org/Graphics/SVG/1.1/DTD/svg11.dtd"><svg xmlns:xlink="http://www.w3.org/1999/xlink" version="1.1" style="font-family:'lucida grande', 'lucida sans unicode', arial, helvetica, sans-serif;font-size:12px;" xmlns="http://www.w3.org/2000/svg" width="600" height="600"><desc>Created with Highcharts 4.0.3</desc><defs><clipPath id="highcharts-21"><rect x="0" y="0" width="398" height="490"></rect></clipPath></defs><rect x="0" y="0" width="600" height="600" strokeWidth="0" fill="#FFFFFF" class=" highcharts-background"></rect><path fill="none" d="M 72 550.5 L 470 550.5" stroke="#808080" stroke-width="1"></path><g class="highcharts-grid" ></g><g class="highcharts-grid" ><path fill="none" d="M 72 60.5 L 470 60.5" stroke="#C0C0C0" stroke-width="1"  opacity="1"></path><path fill="none" d="M 72 142.5 L 470 142.5" stroke="#C0C0C0" stroke-width="1"  opacity="1"></path><path fill="none" d="M 72 223.5 L 470 223.5" stroke="#C0C0C0" stroke-width="1"  opacity="1"></path><path fill="none" d="M 72 305.5 L 470 305.5" stroke="#C0C0C0" stroke-width="1"  opacity="1"></path><path fill="none" d="M 72 387.5 L 470 387.5" stroke="#C0C0C0" stroke-width="1"  opacity="1"></path><path fill="none" d="M 72 468.5 L 470 468.5" stroke="#C0C0C0" stroke-width="1"  opacity="1"></path><path fill="none" d="M 72 550.5 L 470 550.5" stroke="#C0C0C0" stroke-width="1"  opacity="1"></path></g><g class="highcharts-axis" ><path fill="none" d="M 96.5 550 L 96.5 560" stroke="#C0D0E0" stroke-width="1" opacity="1"></path><path fill="none" d="M 108.5 550 L 108.5 560" stroke="#C0D0E0" stroke-width="1" opacity="1"></path><path fill="none" d="M 121.5 550 L 121.5 560" stroke="#C0D0E0" stroke-width="1" opacity="1"></path><path fill="none" d="M 133.5 550 L 133.5 560" stroke="#C0D0E0" stroke-width="1" opacity="1"></path><path fill="none" d="M 146.5 550 L 146.5 560" stroke="#C0D0E0" stroke-width="1" opacity="1"></path><path fill="none" d="M 158.5 550 L 158.5 560" stroke="#C0D0E0" stroke-width="1" opacity="1"></path><path fill="none" d="M 171.5 550 L 171.5 560" stroke="#C0D0E0" stroke-width="1" opacity="1"></path><path fill="none" d="M 183.5 550 L 183.5 560" stroke="#C0D0E0" stroke-width="1" opacity="1"></path><path fill="none" d="M 195.5 550 L 195.5 560" stroke="#C0D0E0" stroke-width="1" opacity="1"></path><path fill="none" d="M 208.5 550 L 208.5 560" stroke="#C0D0E0" stroke-width="1" opacity="1"></path><path fill="none" d="M 220.5 550 L 220.5 560" stroke="#C0D0E0" stroke-width="1" opacity="1"></path><path fill="none" d="M 233.5 550 L 233.5 560" stroke="#C0D0E0" stroke-width="1" opacity="1"></path><path fill="none" d="M 245.5 550 L 245.5 560" stroke="#C0D0E0" stroke-width="1" opacity="1"></path><path fill="none" d="M 258.5 550 L 258.5 560" stroke="#C0D0E0" stroke-width="1" opacity="1"></path><path fill="none" d="M 270.5 550 L 270.5 560" stroke="#C0D0E0" stroke-width="1" opacity="1"></path><path fill="none" d="M 282.5 550 L 282.5 560" stroke="#C0D0E0" stroke-width="1" opacity="1"></path><path fill="none" d="M 295.5 550 L 295.5 560" stroke="#C0D0E0" stroke-width="1" opacity="1"></path><path fill="none" d="M 307.5 550 L 307.5 560" stroke="#C0D0E0" stroke-width="1" opacity="1"></path><path fill="none" d="M 320.5 550 L 320.5 560" stroke="#C0D0E0" stroke-width="1" opacity="1"></path><path fill="none" d="M 332.5 550 L 332.5 560" stroke="#C0D0E0" stroke-width="1" opacity="1"></path><path fill="none" d="M 345.5 550 L 345.5 560" stroke="#C0D0E0" stroke-width="1" opacity="1"></path><path fill="none" d="M 357.5 550 L 357.5 560" stroke="#C0D0E0" stroke-width="1" opacity="1"></path><path fill="none" d="M 370.5 550 L 370.5 560" stroke="#C0D0E0" stroke-width="1" opacity="1"></path><path fill="none" d="M 382.5 550 L 382.5 560" stroke="#C0D0E0" stroke-width="1" opacity="1"></path><path fill="none" d="M 394.5 550 L 394.5 560" stroke="#C0D0E0" stroke-width="1" opacity="1"></path><path fill="none" d="M 407.5 550 L 407.5 560" stroke="#C0D0E0" stroke-width="1" opacity="1"></path><path fill="none" d="M 419.5 550 L 419.5 560" stroke="#C0D0E0" stroke-width="1" opacity="1"></path><path fill="none" d="M 432.5 550 L 432.5 560" stroke="#C0D0E0" stroke-width="1" opacity="1"></path><path fill="none" d="M 444.5 550 L 444.5 560" stroke="#C0D0E0" stroke-width="1" opacity="1"></path><path fill="none" d="M 457.5 550 L 457.5 560" stroke="#C0D0E0" stroke-width="1" opacity="1"></path><path fill="none" d="M 470.5 550 L 470.5 560" stroke="#C0D0E0" stroke-width="1" opacity="1"></path><path fill="none" d="M 83.5 550 L 83.5 560" stroke="#C0D0E0" stroke-width="1" opacity="1"></path><path fill="none" d="M 71.5 550 L 71.5 560" stroke="#C0D0E0" stroke-width="1" opacity="1"></path><text x="271"  text-anchor="middle" transform="translate(0,0)" class=" highcharts-xaxis-title" style="color:#707070;fill:#707070;" visibility="visible" y="601">Threads</text><path fill="none" d="M 72 550.5 L 470 550.5" stroke="#C0D0E0" stroke-width="1"  visibility="visible"></path></g><g class="highcharts-axis" ><text x="24"  text-anchor="middle" transform="translate(0,0) rotate(270 24 305)" class=" highcharts-yaxis-title" style="color:#707070;fill:#707070;" visibility="visible" y="305">Througput</text></g><g class="highcharts-series-group" ><g class="highcharts-series" visibility="visible"  transform="translate(72,60) scale(1 1)" clip-path="url(#highcharts-21)"><path fill="none" d="M 6.21875 196.838341 L 18.65625 415.26398316666666 L 31.09375 455.1627966666667 L 43.53125 467.926333 L 55.96875 465.3623753333333 L 68.40625 462.0796203333333 L 80.84375 459.597215 L 93.28125 458.3894385 L 105.71875 457.8133046666667 L 118.15625 457.0301866666667 L 130.59375 456.9192751666667 L 143.03125 456.4067515 L 155.46875 456.4491855 L 167.90625 455.99328133333336 L 180.34375 455.71694583333334 L 192.78125 456.151584 L 205.21875 455.73712566666666 L 217.65625 456.01106016666665 L 230.09375 455.55100733333336 L 242.53125 455.6191745 L 254.96875 455.91755183333333 L 267.40625 455.8968085 L 279.84375 455.6835686666667 L 292.28125 455.8826393333333 L 304.71875 455.7966525 L 317.15625 456.02253433333334 L 329.59375 455.815934 L 342.03125 455.9678911666667 L 354.46875 455.8250071666667 L 366.90625 455.83404766666666 L 379.34375 455.90269666666666 L 391.78125 455.8051458333333" stroke="#7cb5ec" stroke-width="2"  stroke-linejoin="round" stroke-linecap="round"></path></g><g class="highcharts-markers" visibility="visible"  transform="translate(72,60) scale(1 1)" clip-path="none"><path fill="#7cb5ec" d="M 391 451.8051458333333 C 396.328 451.8051458333333 396.328 459.8051458333333 391 459.8051458333333 C 385.672 459.8051458333333 385.672 451.8051458333333 391 451.8051458333333 Z"></path><path fill="#7cb5ec" d="M 379 451.90269666666666 C 384.328 451.90269666666666 384.328 459.90269666666666 379 459.90269666666666 C 373.672 459.90269666666666 373.672 451.90269666666666 379 451.90269666666666 Z"></path><path fill="#7cb5ec" d="M 366 451.83404766666666 C 371.328 451.83404766666666 371.328 459.83404766666666 366 459.83404766666666 C 360.672 459.83404766666666 360.672 451.83404766666666 366 451.83404766666666 Z"></path><path fill="#7cb5ec" d="M 354 451.8250071666667 C 359.328 451.8250071666667 359.328 459.8250071666667 354 459.8250071666667 C 348.672 459.8250071666667 348.672 451.8250071666667 354 451.8250071666667 Z"></path><path fill="#7cb5ec" d="M 342 451.9678911666667 C 347.328 451.9678911666667 347.328 459.9678911666667 342 459.9678911666667 C 336.672 459.9678911666667 336.672 451.9678911666667 342 451.9678911666667 Z"></path><path fill="#7cb5ec" d="M 329 451.815934 C 334.328 451.815934 334.328 459.815934 329 459.815934 C 323.672 459.815934 323.672 451.815934 329 451.815934 Z"></path><path fill="#7cb5ec" d="M 317 452.02253433333334 C 322.328 452.02253433333334 322.328 460.02253433333334 317 460.02253433333334 C 311.672 460.02253433333334 311.672 452.02253433333334 317 452.02253433333334 Z"></path><path fill="#7cb5ec" d="M 304 451.7966525 C 309.328 451.7966525 309.328 459.7966525 304 459.7966525 C 298.672 459.7966525 298.672 451.7966525 304 451.7966525 Z"></path><path fill="#7cb5ec" d="M 292 451.8826393333333 C 297.328 451.8826393333333 297.328 459.8826393333333 292 459.8826393333333 C 286.672 459.8826393333333 286.672 451.8826393333333 292 451.8826393333333 Z"></path><path fill="#7cb5ec" d="M 279 451.6835686666667 C 284.328 451.6835686666667 284.328 459.6835686666667 279 459.6835686666667 C 273.672 459.6835686666667 273.672 451.6835686666667 279 451.6835686666667 Z"></path><path fill="#7cb5ec" d="M 267 451.8968085 C 272.328 451.8968085 272.328 459.8968085 267 459.8968085 C 261.672 459.8968085 261.672 451.8968085 267 451.8968085 Z"></path><path fill="#7cb5ec" d="M 254 451.91755183333333 C 259.328 451.91755183333333 259.328 459.91755183333333 254 459.91755183333333 C 248.672 459.91755183333333 248.672 451.91755183333333 254 451.91755183333333 Z"></path><path fill="#7cb5ec" d="M 242 451.6191745 C 247.328 451.6191745 247.328 459.6191745 242 459.6191745 C 236.672 459.6191745 236.672 451.6191745 242 451.6191745 Z"></path><path fill="#7cb5ec" d="M 230 451.55100733333336 C 235.328 451.55100733333336 235.328 459.55100733333336 230 459.55100733333336 C 224.672 459.55100733333336 224.672 451.55100733333336 230 451.55100733333336 Z"></path><path fill="#7cb5ec" d="M 217 452.01106016666665 C 222.328 452.01106016666665 222.328 460.01106016666665 217 460.01106016666665 C 211.672 460.01106016666665 211.672 452.01106016666665 217 452.01106016666665 Z"></path><path fill="#7cb5ec" d="M 205 451.73712566666666 C 210.328 451.73712566666666 210.328 459.73712566666666 205 459.73712566666666 C 199.672 459.73712566666666 199.672 451.73712566666666 205 451.73712566666666 Z"></path><path fill="#7cb5ec" d="M 192 452.151584 C 197.328 452.151584 197.328 460.151584 192 460.151584 C 186.672 460.151584 186.672 452.151584 192 452.151584 Z"></path><path fill="#7cb5ec" d="M 180 451.71694583333334 C 185.328 451.71694583333334 185.328 459.71694583333334 180 459.71694583333334 C 174.672 459.71694583333334 174.672 451.71694583333334 180 451.71694583333334 Z"></path><path fill="#7cb5ec" d="M 167 451.99328133333336 C 172.328 451.99328133333336 172.328 459.99328133333336 167 459.99328133333336 C 161.672 459.99328133333336 161.672 451.99328133333336 167 451.99328133333336 Z"></path><path fill="#7cb5ec" d="M 155 452.4491855 C 160.328 452.4491855 160.328 460.4491855 155 460.4491855 C 149.672 460.4491855 149.672 452.4491855 155 452.4491855 Z"></path><path fill="#7cb5ec" d="M 143 452.4067515 C 148.328 452.4067515 148.328 460.4067515 143 460.4067515 C 137.672 460.4067515 137.672 452.4067515 143 452.4067515 Z"></path><path fill="#7cb5ec" d="M 130 452.9192751666667 C 135.328 452.9192751666667 135.328 460.9192751666667 130 460.9192751666667 C 124.672 460.9192751666667 124.672 452.9192751666667 130 452.9192751666667 Z"></path><path fill="#7cb5ec" d="M 118 453.0301866666667 C 123.328 453.0301866666667 123.328 461.0301866666667 118 461.0301866666667 C 112.672 461.0301866666667 112.672 453.0301866666667 118 453.0301866666667 Z"></path><path fill="#7cb5ec" d="M 105 453.8133046666667 C 110.328 453.8133046666667 110.328 461.8133046666667 105 461.8133046666667 C 99.672 461.8133046666667 99.672 453.8133046666667 105 453.8133046666667 Z"></path><path fill="#7cb5ec" d="M 93 454.3894385 C 98.328 454.3894385 98.328 462.3894385 93 462.3894385 C 87.672 462.3894385 87.672 454.3894385 93 454.3894385 Z"></path><path fill="#7cb5ec" d="M 80 455.597215 C 85.328 455.597215 85.328 463.597215 80 463.597215 C 74.672 463.597215 74.672 455.597215 80 455.597215 Z"></path><path fill="#7cb5ec" d="M 68 458.0796203333333 C 73.328 458.0796203333333 73.328 466.0796203333333 68 466.0796203333333 C 62.672 466.0796203333333 62.672 458.0796203333333 68 458.0796203333333 Z"></path><path fill="#7cb5ec" d="M 55 461.3623753333333 C 60.328 461.3623753333333 60.328 469.3623753333333 55 469.3623753333333 C 49.672 469.3623753333333 49.672 461.3623753333333 55 461.3623753333333 Z"></path><path fill="#7cb5ec" d="M 43 463.926333 C 48.328 463.926333 48.328 471.926333 43 471.926333 C 37.672 471.926333 37.672 463.926333 43 463.926333 Z"></path><path fill="#7cb5ec" d="M 31 451.1627966666667 C 36.328 451.1627966666667 36.328 459.1627966666667 31 459.1627966666667 C 25.672 459.1627966666667 25.672 451.1627966666667 31 451.1627966666667 Z"></path><path fill="#7cb5ec" d="M 18 411.26398316666666 C 23.328 411.26398316666666 23.328 419.26398316666666 18 419.26398316666666 C 12.672 419.26398316666666 12.672 411.26398316666666 18 411.26398316666666 Z"></path><path fill="#7cb5ec" d="M 6 192.838341 C 11.328 192.838341 11.328 200.838341 6 200.838341 C 0.6719999999999999 200.838341 0.6719999999999999 192.838341 6 192.838341 Z"></path></g><g class="highcharts-series" visibility="visible"  transform="translate(72,60) scale(1 1)" clip-path="url(#highcharts-21)"><path fill="none" d="M 6.21875 136.25617833333337 L 18.65625 436.17508433333336 L 31.09375 450.7859615 L 43.53125 454.92630633333334 L 55.96875 455.05801833333334 L 68.40625 459.1051733333333 L 80.84375 458.736383 L 93.28125 461.0975705 L 105.71875 459.284448 L 118.15625 457.06024816666667 L 130.59375 456.26416966666665 L 143.03125 456.1579458333333 L 155.46875 455.0255803333333 L 167.90625 455.28733016666666 L 180.34375 454.85942133333333 L 192.78125 455.428344 L 205.21875 455.13288216666666 L 217.65625 455.3975883333333 L 230.09375 454.8019035 L 242.53125 455.2736101666667 L 254.96875 455.0845028333333 L 267.40625 454.8040676666667 L 279.84375 455.1072388333333 L 292.28125 454.9318596666667 L 304.71875 454.99159066666664 L 317.15625 454.8455543333333 L 329.59375 454.6385375 L 342.03125 454.6132045 L 354.46875 454.8269506666667 L 366.90625 454.793157 L 379.34375 454.67133483333333 L 391.78125 454.5791985" stroke="#434348" stroke-width="2"  stroke-linejoin="round" stroke-linecap="round"></path></g><g class="highcharts-markers" visibility="visible"  transform="translate(72,60) scale(1 1)" clip-path="none"><path fill="#434348" d="M 391 450.5791985 L 395 454.5791985 391 458.5791985 387 454.5791985 Z"></path><path fill="#434348" d="M 379 450.67133483333333 L 383 454.67133483333333 379 458.67133483333333 375 454.67133483333333 Z"></path><path fill="#434348" d="M 366 450.793157 L 370 454.793157 366 458.793157 362 454.793157 Z"></path><path fill="#434348" d="M 354 450.8269506666667 L 358 454.8269506666667 354 458.8269506666667 350 454.8269506666667 Z"></path><path fill="#434348" d="M 342 450.6132045 L 346 454.6132045 342 458.6132045 338 454.6132045 Z"></path><path fill="#434348" d="M 329 450.6385375 L 333 454.6385375 329 458.6385375 325 454.6385375 Z"></path><path fill="#434348" d="M 317 450.8455543333333 L 321 454.8455543333333 317 458.8455543333333 313 454.8455543333333 Z"></path><path fill="#434348" d="M 304 450.99159066666664 L 308 454.99159066666664 304 458.99159066666664 300 454.99159066666664 Z"></path><path fill="#434348" d="M 292 450.9318596666667 L 296 454.9318596666667 292 458.9318596666667 288 454.9318596666667 Z"></path><path fill="#434348" d="M 279 451.1072388333333 L 283 455.1072388333333 279 459.1072388333333 275 455.1072388333333 Z"></path><path fill="#434348" d="M 267 450.8040676666667 L 271 454.8040676666667 267 458.8040676666667 263 454.8040676666667 Z"></path><path fill="#434348" d="M 254 451.0845028333333 L 258 455.0845028333333 254 459.0845028333333 250 455.0845028333333 Z"></path><path fill="#434348" d="M 242 451.2736101666667 L 246 455.2736101666667 242 459.2736101666667 238 455.2736101666667 Z"></path><path fill="#434348" d="M 230 450.8019035 L 234 454.8019035 230 458.8019035 226 454.8019035 Z"></path><path fill="#434348" d="M 217 451.3975883333333 L 221 455.3975883333333 217 459.3975883333333 213 455.3975883333333 Z"></path><path fill="#434348" d="M 205 451.13288216666666 L 209 455.13288216666666 205 459.13288216666666 201 455.13288216666666 Z"></path><path fill="#434348" d="M 192 451.428344 L 196 455.428344 192 459.428344 188 455.428344 Z"></path><path fill="#434348" d="M 180 450.85942133333333 L 184 454.85942133333333 180 458.85942133333333 176 454.85942133333333 Z"></path><path fill="#434348" d="M 167 451.28733016666666 L 171 455.28733016666666 167 459.28733016666666 163 455.28733016666666 Z"></path><path fill="#434348" d="M 155 451.0255803333333 L 159 455.0255803333333 155 459.0255803333333 151 455.0255803333333 Z"></path><path fill="#434348" d="M 143 452.1579458333333 L 147 456.1579458333333 143 460.1579458333333 139 456.1579458333333 Z"></path><path fill="#434348" d="M 130 452.26416966666665 L 134 456.26416966666665 130 460.26416966666665 126 456.26416966666665 Z"></path><path fill="#434348" d="M 118 453.06024816666667 L 122 457.06024816666667 118 461.06024816666667 114 457.06024816666667 Z"></path><path fill="#434348" d="M 105 455.284448 L 109 459.284448 105 463.284448 101 459.284448 Z"></path><path fill="#434348" d="M 93 457.0975705 L 97 461.0975705 93 465.0975705 89 461.0975705 Z"></path><path fill="#434348" d="M 80 454.736383 L 84 458.736383 80 462.736383 76 458.736383 Z"></path><path fill="#434348" d="M 68 455.1051733333333 L 72 459.1051733333333 68 463.1051733333333 64 459.1051733333333 Z"></path><path fill="#434348" d="M 55 451.05801833333334 L 59 455.05801833333334 55 459.05801833333334 51 455.05801833333334 Z"></path><path fill="#434348" d="M 43 450.92630633333334 L 47 454.92630633333334 43 458.92630633333334 39 454.92630633333334 Z"></path><path fill="#434348" d="M 31 446.7859615 L 35 450.7859615 31 454.7859615 27 450.7859615 Z"></path><path fill="#434348" d="M 18 432.17508433333336 L 22 436.17508433333336 18 440.17508433333336 14 436.17508433333336 Z"></path><path fill="#434348" d="M 6 132.25617833333337 L 10 136.25617833333337 6 140.25617833333337 2 136.25617833333337 Z"></path></g><g class="highcharts-series" visibility="visible"  transform="translate(72,60) scale(1 1)" clip-path="url(#highcharts-21)"><path fill="none" d="M 6.21875 133.39308383333338 L 18.65625 162.64195150000006 L 31.09375 157.19878650000004 L 43.53125 161.78299783333335 L 55.96875 163.63520600000004 L 68.40625 168.40917800000005 L 80.84375 174.15824183333336 L 93.28125 179.7390641666667 L 105.71875 184.96254583333337 L 118.15625 190.85936916666668 L 130.59375 193.396091 L 143.03125 199.02708116666668 L 155.46875 201.48839200000003 L 167.90625 203.82140450000003 L 180.34375 207.3141081666667 L 192.78125 205.85593350000005 L 205.21875 208.84380650000003 L 217.65625 212.81884166666669 L 230.09375 212.61401350000006 L 242.53125 214.33729450000004 L 254.96875 212.80313716666672 L 267.40625 213.7402131666667 L 279.84375 215.78283533333337 L 292.28125 216.21260616666672 L 304.71875 217.15379000000001 L 317.15625 217.8736326666667 L 329.59375 217.93710400000003 L 342.03125 218.46007283333336 L 354.46875 218.38020283333339 L 366.90625 219.97267833333336 L 379.34375 217.70662433333337 L 391.78125 219.6053008333334" stroke="#90ed7d" stroke-width="2"  stroke-linejoin="round" stroke-linecap="round"></path></g><g class="highcharts-markers" visibility="visible"  transform="translate(72,60) scale(1 1)" clip-path="none"><path fill="#90ed7d" d="M 387 215.6053008333334 L 395 215.6053008333334 395 223.6053008333334 387 223.6053008333334 Z"></path><path fill="#90ed7d" d="M 375 213.70662433333337 L 383 213.70662433333337 383 221.70662433333337 375 221.70662433333337 Z"></path><path fill="#90ed7d" d="M 362 215.97267833333336 L 370 215.97267833333336 370 223.97267833333336 362 223.97267833333336 Z"></path><path fill="#90ed7d" d="M 350 214.38020283333339 L 358 214.38020283333339 358 222.38020283333339 350 222.38020283333339 Z"></path><path fill="#90ed7d" d="M 338 214.46007283333336 L 346 214.46007283333336 346 222.46007283333336 338 222.46007283333336 Z"></path><path fill="#90ed7d" d="M 325 213.93710400000003 L 333 213.93710400000003 333 221.93710400000003 325 221.93710400000003 Z"></path><path fill="#90ed7d" d="M 313 213.8736326666667 L 321 213.8736326666667 321 221.8736326666667 313 221.8736326666667 Z"></path><path fill="#90ed7d" d="M 300 213.15379000000001 L 308 213.15379000000001 308 221.15379000000001 300 221.15379000000001 Z"></path><path fill="#90ed7d" d="M 288 212.21260616666672 L 296 212.21260616666672 296 220.21260616666672 288 220.21260616666672 Z"></path><path fill="#90ed7d" d="M 275 211.78283533333337 L 283 211.78283533333337 283 219.78283533333337 275 219.78283533333337 Z"></path><path fill="#90ed7d" d="M 263 209.7402131666667 L 271 209.7402131666667 271 217.7402131666667 263 217.7402131666667 Z"></path><path fill="#90ed7d" d="M 250 208.80313716666672 L 258 208.80313716666672 258 216.80313716666672 250 216.80313716666672 Z"></path><path fill="#90ed7d" d="M 238 210.33729450000004 L 246 210.33729450000004 246 218.33729450000004 238 218.33729450000004 Z"></path><path fill="#90ed7d" d="M 226 208.61401350000006 L 234 208.61401350000006 234 216.61401350000006 226 216.61401350000006 Z"></path><path fill="#90ed7d" d="M 213 208.81884166666669 L 221 208.81884166666669 221 216.81884166666669 213 216.81884166666669 Z"></path><path fill="#90ed7d" d="M 201 204.84380650000003 L 209 204.84380650000003 209 212.84380650000003 201 212.84380650000003 Z"></path><path fill="#90ed7d" d="M 188 201.85593350000005 L 196 201.85593350000005 196 209.85593350000005 188 209.85593350000005 Z"></path><path fill="#90ed7d" d="M 176 203.3141081666667 L 184 203.3141081666667 184 211.3141081666667 176 211.3141081666667 Z"></path><path fill="#90ed7d" d="M 163 199.82140450000003 L 171 199.82140450000003 171 207.82140450000003 163 207.82140450000003 Z"></path><path fill="#90ed7d" d="M 151 197.48839200000003 L 159 197.48839200000003 159 205.48839200000003 151 205.48839200000003 Z"></path><path fill="#90ed7d" d="M 139 195.02708116666668 L 147 195.02708116666668 147 203.02708116666668 139 203.02708116666668 Z"></path><path fill="#90ed7d" d="M 126 189.396091 L 134 189.396091 134 197.396091 126 197.396091 Z"></path><path fill="#90ed7d" d="M 114 186.85936916666668 L 122 186.85936916666668 122 194.85936916666668 114 194.85936916666668 Z"></path><path fill="#90ed7d" d="M 101 180.96254583333337 L 109 180.96254583333337 109 188.96254583333337 101 188.96254583333337 Z"></path><path fill="#90ed7d" d="M 89 175.7390641666667 L 97 175.7390641666667 97 183.7390641666667 89 183.7390641666667 Z"></path><path fill="#90ed7d" d="M 76 170.15824183333336 L 84 170.15824183333336 84 178.15824183333336 76 178.15824183333336 Z"></path><path fill="#90ed7d" d="M 64 164.40917800000005 L 72 164.40917800000005 72 172.40917800000005 64 172.40917800000005 Z"></path><path fill="#90ed7d" d="M 51 159.63520600000004 L 59 159.63520600000004 59 167.63520600000004 51 167.63520600000004 Z"></path><path fill="#90ed7d" d="M 39 157.78299783333335 L 47 157.78299783333335 47 165.78299783333335 39 165.78299783333335 Z"></path><path fill="#90ed7d" d="M 27 153.19878650000004 L 35 153.19878650000004 35 161.19878650000004 27 161.19878650000004 Z"></path><path fill="#90ed7d" d="M 14 158.64195150000006 L 22 158.64195150000006 22 166.64195150000006 14 166.64195150000006 Z"></path><path fill="#90ed7d" d="M 2 129.39308383333338 L 10 129.39308383333338 10 137.39308383333338 2 137.39308383333338 Z"></path></g><g class="highcharts-series" visibility="visible"  transform="translate(72,60) scale(1 1)" clip-path="url(#highcharts-21)"><path fill="none" d="M 6.21875 45.5955616666667 L 18.65625 99.92278450000003 L 31.09375 129.68619300000006 L 43.53125 140.38550633333335 L 55.96875 156.79105750000002 L 68.40625 152.88904050000002 L 80.84375 165.77616300000005 L 93.28125 166.90255866666672 L 105.71875 164.74886983333334 L 118.15625 165.75826166666673 L 130.59375 161.3466528333334 L 143.03125 158.20031383333338 L 155.46875 156.52019366666673 L 167.90625 158.99608200000006 L 180.34375 150.95221750000002 L 192.78125 158.15956216666672 L 205.21875 156.25335600000005 L 217.65625 157.47052416666668 L 230.09375 160.2998086666667 L 242.53125 158.86584000000005 L 254.96875 156.43629750000002 L 267.40625 158.89190800000006 L 279.84375 158.60630333333336 L 292.28125 159.6884683333334 L 304.71875 160.2843246666667 L 317.15625 159.69633283333337 L 329.59375 160.27147033333335 L 342.03125 162.63830916666672 L 354.46875 161.67863600000004 L 366.90625 163.26225883333336 L 379.34375 163.46877750000004 L 391.78125 162.053535" stroke="#f7a35c" stroke-width="2"  stroke-linejoin="round" stroke-linecap="round"></path></g><g class="highcharts-markers" visibility="visible"  transform="translate(72,60) scale(1 1)" clip-path="none"><path fill="#f7a35c" d="M 391 158.053535 L 395 166.053535 387 166.053535 Z"></path><path fill="#f7a35c" d="M 379 159.46877750000004 L 383 167.46877750000004 375 167.46877750000004 Z"></path><path fill="#f7a35c" d="M 366 159.26225883333336 L 370 167.26225883333336 362 167.26225883333336 Z"></path><path fill="#f7a35c" d="M 354 157.67863600000004 L 358 165.67863600000004 350 165.67863600000004 Z"></path><path fill="#f7a35c" d="M 342 158.63830916666672 L 346 166.63830916666672 338 166.63830916666672 Z"></path><path fill="#f7a35c" d="M 329 156.27147033333335 L 333 164.27147033333335 325 164.27147033333335 Z"></path><path fill="#f7a35c" d="M 317 155.69633283333337 L 321 163.69633283333337 313 163.69633283333337 Z"></path><path fill="#f7a35c" d="M 304 156.2843246666667 L 308 164.2843246666667 300 164.2843246666667 Z"></path><path fill="#f7a35c" d="M 292 155.6884683333334 L 296 163.6884683333334 288 163.6884683333334 Z"></path><path fill="#f7a35c" d="M 279 154.60630333333336 L 283 162.60630333333336 275 162.60630333333336 Z"></path><path fill="#f7a35c" d="M 267 154.89190800000006 L 271 162.89190800000006 263 162.89190800000006 Z"></path><path fill="#f7a35c" d="M 254 152.43629750000002 L 258 160.43629750000002 250 160.43629750000002 Z"></path><path fill="#f7a35c" d="M 242 154.86584000000005 L 246 162.86584000000005 238 162.86584000000005 Z"></path><path fill="#f7a35c" d="M 230 156.2998086666667 L 234 164.2998086666667 226 164.2998086666667 Z"></path><path fill="#f7a35c" d="M 217 153.47052416666668 L 221 161.47052416666668 213 161.47052416666668 Z"></path><path fill="#f7a35c" d="M 205 152.25335600000005 L 209 160.25335600000005 201 160.25335600000005 Z"></path><path fill="#f7a35c" d="M 192 154.15956216666672 L 196 162.15956216666672 188 162.15956216666672 Z"></path><path fill="#f7a35c" d="M 180 146.95221750000002 L 184 154.95221750000002 176 154.95221750000002 Z"></path><path fill="#f7a35c" d="M 167 154.99608200000006 L 171 162.99608200000006 163 162.99608200000006 Z"></path><path fill="#f7a35c" d="M 155 152.52019366666673 L 159 160.52019366666673 151 160.52019366666673 Z"></path><path fill="#f7a35c" d="M 143 154.20031383333338 L 147 162.20031383333338 139 162.20031383333338 Z"></path><path fill="#f7a35c" d="M 130 157.3466528333334 L 134 165.3466528333334 126 165.3466528333334 Z"></path><path fill="#f7a35c" d="M 118 161.75826166666673 L 122 169.75826166666673 114 169.75826166666673 Z"></path><path fill="#f7a35c" d="M 105 160.74886983333334 L 109 168.74886983333334 101 168.74886983333334 Z"></path><path fill="#f7a35c" d="M 93 162.90255866666672 L 97 170.90255866666672 89 170.90255866666672 Z"></path><path fill="#f7a35c" d="M 80 161.77616300000005 L 84 169.77616300000005 76 169.77616300000005 Z"></path><path fill="#f7a35c" d="M 68 148.88904050000002 L 72 156.88904050000002 64 156.88904050000002 Z"></path><path fill="#f7a35c" d="M 55 152.79105750000002 L 59 160.79105750000002 51 160.79105750000002 Z"></path><path fill="#f7a35c" d="M 43 136.38550633333335 L 47 144.38550633333335 39 144.38550633333335 Z"></path><path fill="#f7a35c" d="M 31 125.68619300000006 L 35 133.68619300000006 27 133.68619300000006 Z"></path><path fill="#f7a35c" d="M 18 95.92278450000003 L 22 103.92278450000003 14 103.92278450000003 Z"></path><path fill="#f7a35c" d="M 6 41.5955616666667 L 10 49.5955616666667 2 49.5955616666667 Z"></path></g></g><text x="280" text-anchor="middle" class="highcharts-title"  style="color:#333333;font-size:18px;fill:#333333;width:536px;" y="25"><tspan>Stack Throughput</tspan></text><text x="280" text-anchor="middle" class="highcharts-subtitle"  style="color:#555555;fill:#555555;width:536px;" y="46"><tspan>Intel(R) Xeon(R) CPU E5620 @ 2.40GHz</tspan></text><g class="highcharts-legend"  transform="translate(289,110)"><g ><g><g class="highcharts-legend-item"  transform="translate(8,3)"><path fill="none" d="M 0 11 L 16 11" stroke="#7cb5ec" stroke-width="2"></path><path fill="#7cb5ec" d="M 8 7 C 13.328 7 13.328 15 8 15 C 2.6719999999999997 15 2.6719999999999997 7 8 7 Z"></path><text x="21" style="color:#333333;font-size:12px;font-weight:bold;cursor:pointer;fill:#333333;" text-anchor="start"  y="15"><tspan>std::mutex implemetation</tspan></text></g><g class="highcharts-legend-item"  transform="translate(8,17)"><path fill="none" d="M 0 11 L 16 11" stroke="#434348" stroke-width="2"></path><path fill="#434348" d="M 8 7 L 12 11 8 15 4 11 Z"></path><text x="21" y="15" style="color:#333333;font-size:12px;font-weight:bold;cursor:pointer;fill:#333333;" text-anchor="start" ><tspan>Naive lockfree implementation</tspan></text></g><g class="highcharts-legend-item"  transform="translate(8,31)"><path fill="none" d="M 0 11 L 16 11" stroke="#90ed7d" stroke-width="2"></path><path fill="#90ed7d" d="M 4 7 L 12 7 12 15 4 15 Z"></path><text x="21" y="15" style="color:#333333;font-size:12px;font-weight:bold;cursor:pointer;fill:#333333;" text-anchor="start" ><tspan>Lockfree implementation with sleeps</tspan></text></g><g class="highcharts-legend-item"  transform="translate(8,45)"><path fill="none" d="M 0 11 L 16 11" stroke="#f7a35c" stroke-width="2"></path><path fill="#f7a35c" d="M 8 7 L 12 15 4 15 Z"></path><text x="21" y="15" style="color:#333333;font-size:12px;font-weight:bold;cursor:pointer;fill:#333333;" text-anchor="start" ><tspan>Spinlock implementation with sleeps</tspan></text></g></g></g></g><g class="highcharts-axis-labels highcharts-xaxis-labels" ><text x="78.21875" text-anchor="middle" style="width:1px;color:#606060;cursor:default;font-size:11px;fill:#606060;" y="570" opacity="1">1</text><text x="90.65625" text-anchor="middle" style="width:1px;color:#606060;cursor:default;font-size:11px;fill:#606060;" y="583" opacity="1">2</text><text x="103.09375" text-anchor="middle" style="width:1px;color:#606060;cursor:default;font-size:11px;fill:#606060;" y="570" opacity="1">3</text><text x="115.53125" text-anchor="middle" style="width:1px;color:#606060;cursor:default;font-size:11px;fill:#606060;" y="583" opacity="1">4</text><text x="127.96875" text-anchor="middle" style="width:1px;color:#606060;cursor:default;font-size:11px;fill:#606060;" y="570" opacity="1">5</text><text x="140.40625" text-anchor="middle" style="width:1px;color:#606060;cursor:default;font-size:11px;fill:#606060;" y="583" opacity="1">6</text><text x="152.84375" text-anchor="middle" style="width:1px;color:#606060;cursor:default;font-size:11px;fill:#606060;" y="570" opacity="1">7</text><text x="165.28125" text-anchor="middle" style="width:1px;color:#606060;cursor:default;font-size:11px;fill:#606060;" y="583" opacity="1">8</text><text x="177.71875" text-anchor="middle" style="width:1px;color:#606060;cursor:default;font-size:11px;fill:#606060;" y="570" opacity="1">9</text><text x="190.15625" text-anchor="middle" style="width:1px;color:#606060;cursor:default;font-size:11px;fill:#606060;" y="583" opacity="1">10</text><text x="202.59375" text-anchor="middle" style="width:1px;color:#606060;cursor:default;font-size:11px;fill:#606060;" y="570" opacity="1">11</text><text x="215.03125" text-anchor="middle" style="width:1px;color:#606060;cursor:default;font-size:11px;fill:#606060;" y="583" opacity="1">12</text><text x="227.46875" text-anchor="middle" style="width:1px;color:#606060;cursor:default;font-size:11px;fill:#606060;" y="570" opacity="1">13</text><text x="239.90625" text-anchor="middle" style="width:1px;color:#606060;cursor:default;font-size:11px;fill:#606060;" y="583" opacity="1">14</text><text x="252.34375" text-anchor="middle" style="width:1px;color:#606060;cursor:default;font-size:11px;fill:#606060;" y="570" opacity="1">15</text><text x="264.78125" text-anchor="middle" style="width:1px;color:#606060;cursor:default;font-size:11px;fill:#606060;" y="583" opacity="1">16</text><text x="277.21875" text-anchor="middle" style="width:1px;color:#606060;cursor:default;font-size:11px;fill:#606060;" y="570" opacity="1">17</text><text x="289.65625" text-anchor="middle" style="width:1px;color:#606060;cursor:default;font-size:11px;fill:#606060;" y="583" opacity="1">18</text><text x="302.09375" text-anchor="middle" style="width:1px;color:#606060;cursor:default;font-size:11px;fill:#606060;" y="570" opacity="1">19</text><text x="314.53125" text-anchor="middle" style="width:1px;color:#606060;cursor:default;font-size:11px;fill:#606060;" y="583" opacity="1">20</text><text x="326.96875" text-anchor="middle" style="width:1px;color:#606060;cursor:default;font-size:11px;fill:#606060;" y="570" opacity="1">21</text><text x="339.40625" text-anchor="middle" style="width:1px;color:#606060;cursor:default;font-size:11px;fill:#606060;" y="583" opacity="1">22</text><text x="351.84375" text-anchor="middle" style="width:1px;color:#606060;cursor:default;font-size:11px;fill:#606060;" y="570" opacity="1">23</text><text x="364.28125" text-anchor="middle" style="width:1px;color:#606060;cursor:default;font-size:11px;fill:#606060;" y="583" opacity="1">24</text><text x="376.71875" text-anchor="middle" style="width:1px;color:#606060;cursor:default;font-size:11px;fill:#606060;" y="570" opacity="1">25</text><text x="389.15625" text-anchor="middle" style="width:1px;color:#606060;cursor:default;font-size:11px;fill:#606060;" y="583" opacity="1">26</text><text x="401.59375" text-anchor="middle" style="width:1px;color:#606060;cursor:default;font-size:11px;fill:#606060;" y="570" opacity="1">27</text><text x="414.03125" text-anchor="middle" style="width:1px;color:#606060;cursor:default;font-size:11px;fill:#606060;" y="583" opacity="1">28</text><text x="426.46875" text-anchor="middle" style="width:1px;color:#606060;cursor:default;font-size:11px;fill:#606060;" y="570" opacity="1">29</text><text x="438.90625" text-anchor="middle" style="width:1px;color:#606060;cursor:default;font-size:11px;fill:#606060;" y="583" opacity="1">30</text><text x="451.34375" text-anchor="middle" style="width:1px;color:#606060;cursor:default;font-size:11px;fill:#606060;" y="570" opacity="1">31</text><text x="463.78125" text-anchor="middle" style="width:1px;color:#606060;cursor:default;font-size:11px;fill:#606060;" y="583" opacity="1">32</text></g><g class="highcharts-axis-labels highcharts-yaxis-labels" ><text x="57" text-anchor="end" style="width:178px;color:#606060;cursor:default;font-size:11px;fill:#606060;" y="555.5" opacity="1">0M</text><text x="57" text-anchor="end" style="width:178px;color:#606060;cursor:default;font-size:11px;fill:#606060;" y="473.83333333333337" opacity="1">10M</text><text x="57" text-anchor="end" style="width:178px;color:#606060;cursor:default;font-size:11px;fill:#606060;" y="392.1666666666667" opacity="1">20M</text><text x="57" text-anchor="end" style="width:178px;color:#606060;cursor:default;font-size:11px;fill:#606060;" y="310.5" opacity="1">30M</text><text x="57" text-anchor="end" style="width:178px;color:#606060;cursor:default;font-size:11px;fill:#606060;" y="228.83333333333337" opacity="1">40M</text><text x="57" text-anchor="end" style="width:178px;color:#606060;cursor:default;font-size:11px;fill:#606060;" y="147.16666666666669" opacity="1">50M</text><text x="57" text-anchor="end" style="width:178px;color:#606060;cursor:default;font-size:11px;fill:#606060;" y="65.50000000000006" opacity="1">60M</text></g><g class="highcharts-tooltip"  style="cursor:default;padding:0;white-space:nowrap;" transform="translate(0,-9999)"><path fill="none" d="M 3 0 L 13 0 C 16 0 16 0 16 3 L 16 13 C 16 16 16 16 13 16 L 3 16 C 0 16 0 16 0 13 L 0 3 C 0 0 0 0 3 0"  stroke="black" stroke-opacity="0.049999999999999996" stroke-width="5" transform="translate(1, 1)"></path><path fill="none" d="M 3 0 L 13 0 C 16 0 16 0 16 3 L 16 13 C 16 16 16 16 13 16 L 3 16 C 0 16 0 16 0 13 L 0 3 C 0 0 0 0 3 0"  stroke="black" stroke-opacity="0.09999999999999999" stroke-width="3" transform="translate(1, 1)"></path><path fill="none" d="M 3 0 L 13 0 C 16 0 16 0 16 3 L 16 13 C 16 16 16 16 13 16 L 3 16 C 0 16 0 16 0 13 L 0 3 C 0 0 0 0 3 0"  stroke="black" stroke-opacity="0.15" stroke-width="1" transform="translate(1, 1)"></path><path fill="rgb(249, 249, 249)" fill-opacity=" .85" d="M 3 0 L 13 0 C 16 0 16 0 16 3 L 16 13 C 16 16 16 16 13 16 L 3 16 C 0 16 0 16 0 13 L 0 3 C 0 0 0 0 3 0"></path><text x="8"  style="font-size:12px;color:#333333;fill:#333333;" y="21"></text></g><text x="590" text-anchor="end"  style="cursor:pointer;color:#909090;font-size:9px;fill:#909090;" y="595">Highcharts.com</text></svg>